HIERARCHY
ROOT Hips
{
    OFFSET 0.000000 0.000000 0.000000
    CHANNELS 6 Xposition Yposition Zposition Zrotation Xrotation Yrotation
    JOINT Spine
    {
        OFFSET -0.000000 7.246840 0.000000
        CHANNELS 3 Zrotation Xrotation Yrotation
        JOINT Spine1
        {
            OFFSET -0.000000 20.289354 0.000000
            CHANNELS 3 Zrotation Xrotation Yrotation
            JOINT Neck
            {
                OFFSET -0.000000 20.206032 1.836912
                CHANNELS 3 Zrotation Xrotation Yrotation
                JOINT Head
                {
                    OFFSET -0.000000 12.372654 -1.767522
                    CHANNELS 3 Zrotation Xrotation Yrotation
                    End Site
                    {
                        OFFSET -0.000000 22.094025 0.000000
                    }
                }
            }
            JOINT LeftShoulder
            {
                OFFSET 3.465871 17.201674 -0.568930
                CHANNELS 3 Zrotation Xrotation Yrotation
                JOINT LeftArm
                {
                    OFFSET 14.070313 0.000000 0.000000
                    CHANNELS 3 Zrotation Xrotation Yrotation
                    JOINT LeftForeArm
                    {
                        OFFSET 26.549477 0.000000 0.000000
                        CHANNELS 3 Zrotation Xrotation Yrotation
                        JOINT LeftHand
                        {
                            OFFSET 18.880413 0.000000 0.000000
                            CHANNELS 3 Zrotation Xrotation Yrotation
                            End Site
                            {
                                OFFSET 13.256415 0.000000 0.000000
                            }
                        }
                    }
                }
            }
            JOINT RightShoulder
            {
                OFFSET -3.526370 17.201674 -0.568930
                CHANNELS 3 Zrotation Xrotation Yrotation
                JOINT RightArm
                {
                    OFFSET -14.070313 0.000000 0.000000
                    CHANNELS 3 Zrotation Xrotation Yrotation
                    JOINT RightForeArm
                    {
                        OFFSET -26.549477 0.000000 0.000000
                        CHANNELS 3 Zrotation Xrotation Yrotation
                        JOINT RightHand
                        {
                            OFFSET -18.880413 0.000000 0.000000
                            CHANNELS 3 Zrotation Xrotation Yrotation
                            End Site
                            {
                                OFFSET -13.256415 0.000000 0.000000
                            }
                        }
                    }
                }
            }
        }
    }
    JOINT LeftUpLeg
    {
        OFFSET 8.837609 0.000000 0.000000
        CHANNELS 3 Zrotation Xrotation Yrotation
        JOINT LeftLeg
        {
            OFFSET -0.000000 -41.345005 0.000000
            CHANNELS 3 Zrotation Xrotation Yrotation
            JOINT LeftFoot
            {
                OFFSET -0.000000 -35.500874 0.000000
                CHANNELS 3 Zrotation Xrotation Yrotation
                JOINT LeftToeBase
                {
                    OFFSET -0.000000 -5.744446 13.256415
                    CHANNELS 3 Zrotation Xrotation Yrotation
                    End Site
                    {
                        OFFSET -0.000000 0.000000 3.535044
                    }
                }
            }
        }
    }
    JOINT RightUpLeg
    {
        OFFSET -8.837609 0.000000 0.000000
        CHANNELS 3 Zrotation Xrotation Yrotation
        JOINT RightLeg
        {
            OFFSET -0.000000 -41.345005 0.000000
            CHANNELS 3 Zrotation Xrotation Yrotation
            JOINT RightFoot
            {
                OFFSET -0.000000 -35.500874 0.000000
                CHANNELS 3 Zrotation Xrotation Yrotation
                JOINT RightToeBase
                {
                    OFFSET -0.000000 -5.744446 13.256415
                    CHANNELS 3 Zrotation Xrotation Yrotation
                    End Site
                    {
                        OFFSET -0.000000 0.000000 3.535044
                    }
                }
            }
        }
    }
}
MOTION
Frames:    5
Frame Time:    0.010000
43.255234    77.820374    -23.620539    3.203718    7.585160    -148.577606    -5.409745    -1.974710    -2.207133    3.485806    7.833199    -2.352547    5.023819    24.327652    -3.803405    0.905798    -26.931585    -3.226715    12.485814    -4.464183    3.640380    -54.090435    31.210041    -29.040066    1.481597    -25.873667    -94.806229    -60.631710    -11.053255    -23.596605    -5.374740    1.864324    8.282728    52.136955    30.265263    10.486599    -8.559217    -31.822245    101.500618    38.623661    -13.708237    25.837202    -7.532639    -5.530728    -0.109932    -1.633236    35.112888    -10.384696    20.768576    -3.385124    -10.322951    0.143817    -7.929775    -0.211928    -12.673945    -25.209332    -11.761773    142.118530    77.572678    -149.618591    -31.798641    -2.956537    -42.618473    -0.187877    -59.318913    -10.812147    
42.940540    78.598351    -24.488106    3.456408    8.190281    -147.059799    -5.152990    -1.924268    -2.475795    3.658067    7.815296    -2.639146    6.300319    24.894226    -3.957338    -0.147595    -27.077930    -3.640890    13.868325    -4.624584    2.990006    -53.294239    30.602581    -29.863434    1.633542    -26.115723    -96.936470    -61.184589    -11.325487    -22.958691    -5.080715    1.538836    8.446394    50.465984    28.743587    10.135402    -7.663085    -31.683804    104.471397    38.303673    -14.137958    26.029787    -6.696438    -3.717923    -0.825424    -1.512004    33.137314    -9.958151    20.190704    -2.619471    -11.966740    1.019807    -6.898990    -1.492053    -12.284216    -26.472178    -11.419548    144.953308    77.860588    -152.333145    -29.626801    -5.179094    -41.049309    -0.187877    -59.318913    -10.812147    
42.584480    79.469032    -25.378689    3.810185    8.855838    -145.505066    -4.836872    -1.842927    -2.929340    3.673207    7.870735    -3.104256    7.807074    24.869513    -3.827383    -1.072192    -26.575569    -3.719692    15.905847    -4.700455    3.208079    -53.030319    30.468878    -31.002579    1.917483    -26.289251    -98.733780    -61.957909    -11.349840    -22.267605    -4.376240    1.131020    8.742890    48.284485    27.771761    9.669153    -7.123043    -31.714138    107.053398    37.815624    -14.419757    26.394480    -5.689872    -1.795958    -2.165063    -1.728029    30.635521    -6.793212    18.645908    -2.112436    -15.442542    0.644121    -7.468358    -0.946120    -11.674861    -27.528303    -11.151817    148.185333    77.925583    -150.658844    -26.320793    -6.290940    -43.475914    -0.187877    -59.318913    -10.812147    
42.200462    80.395493    -26.253721    4.130462    9.551071    -144.088028    -4.467377    -1.643762    -3.313314    3.505894    7.530509    -3.479981    9.963557    25.792625    -3.874809    -2.672601    -26.927187    -4.090949    18.101250    -4.549182    3.047841    -53.172306    30.490231    -31.637239    2.322957    -26.656727    -100.442581    -62.593445    -11.460587    -21.592577    -3.364044    1.097882    9.277833    46.092068    26.431335    8.985694    -6.688746    -31.482327    109.333748    37.419926    -14.355410    26.677870    -4.648777    0.001031    -2.434935    -1.345456    28.629030    -7.757586    18.195019    -0.487273    -16.265821    0.557986    -7.963413    -0.822436    -10.943089    -28.468699    -10.742242    150.504349    77.941650    -149.522659    -23.363668    -7.408325    -44.977146    -0.187877    -59.318913    -10.812147    
41.766006    81.375908    -27.124681    4.420703    10.266282    -142.664566    -5.315187    -1.523517    -3.607451    8.575706    7.627306    -4.109447    3.869016    25.646004    -3.550401    0.287275    -26.433348    -3.232954    13.519879    -5.790335    2.560576    -49.026424    31.131163    -31.559805    2.648318    -27.938261    -102.263947    -63.676075    -11.582129    -22.408285    -7.645218    0.172029    8.393808    46.224911    26.182373    9.811143    -6.762547    -30.959042    111.347702    37.138184    -13.820751    25.389503    -3.555989    1.839748    -3.213166    -1.248677    26.630344    -9.968781    16.072184    1.690545    -14.450786    3.735234    -4.990347    -5.393373    -10.135392    -29.365374    -10.090228    150.210114    77.889275    -148.690033    -20.274048    -8.695979    -44.621906    -0.187877    -59.318913    -10.812147    
